<svg width="430" height="310" viewBox="0 0 430 310" fill="none" xmlns="http://www.w3.org/2000/svg">
  <defs>
    <filter id="softShadow" x="80" y="28" width="270" height="250" filterUnits="userSpaceOnUse" color-interpolation-filters="sRGB">
      <feFlood flood-opacity="0" result="BackgroundImageFix"/>
      <feColorMatrix in="SourceAlpha" type="matrix" values="0 0 0 0 0 0 0 0 0 0 0 0 0 0 0 0 0 0 127 0" result="hardAlpha"/>
      <feOffset dx="0" dy="18"/>
      <feGaussianBlur stdDeviation="18"/>
      <feColorMatrix type="matrix" values="0 0 0 0 0.28 0 0 0 0 0.47 0 0 0 0 0.84 0 0 0 0.2 0"/>
      <feBlend mode="normal" in2="BackgroundImageFix" result="effect1_dropShadow"/>
      <feBlend mode="normal" in="SourceGraphic" in2="effect1_dropShadow" result="shape"/>
    </filter>
    <linearGradient id="clip" x1="181" y1="38" x2="254" y2="102" gradientUnits="userSpaceOnUse">
      <stop stop-color="#BFD3FF"/>
      <stop offset="1" stop-color="#7A9FE8"/>
    </linearGradient>
    <linearGradient id="board" x1="163" y1="67" x2="283" y2="244" gradientUnits="userSpaceOnUse">
      <stop stop-color="#EAF2FF"/>
      <stop offset="1" stop-color="#7FA4EF"/>
    </linearGradient>
    <linearGradient id="paper" x1="151" y1="76" x2="248" y2="221" gradientUnits="userSpaceOnUse">
      <stop stop-color="#FFFFFF"/>
      <stop offset="1" stop-color="#F4F8FF"/>
    </linearGradient>
    <linearGradient id="star" x1="198" y1="126" x2="232" y2="190" gradientUnits="userSpaceOnUse">
      <stop stop-color="#C9D8FB"/>
      <stop offset="1" stop-color="#84A6EE"/>
    </linearGradient>
  </defs>
  <ellipse cx="214" cy="258" rx="104" ry="14" fill="#CADBF8" opacity="0.28"/>
  <path d="M92 220c12-25 35-45 61-51 12 28 1 61-26 76-9-13-21-21-35-25Z" fill="#DAE7FA" opacity="0.55"/>
  <path d="M328 217c-12-25-35-45-61-51-12 28-1 61 26 76 9-13 21-21 35-25Z" fill="#DAE7FA" opacity="0.55"/>
  <path d="M115 241c12-25 19-42 22-65" stroke="#C7D8F7" stroke-width="6" stroke-linecap="round" opacity="0.55"/>
  <path d="M306 241c-12-25-19-42-22-65" stroke="#C7D8F7" stroke-width="6" stroke-linecap="round" opacity="0.55"/>
  <g filter="url(#softShadow)">
    <rect x="166" y="61" width="123" height="181" rx="18" fill="url(#board)" transform="rotate(7 166 61)"/>
    <rect x="143" y="69" width="123" height="181" rx="18" fill="url(#paper)" stroke="#BCD0F5" stroke-width="5" transform="rotate(7 143 69)"/>
    <path d="M195 140l17 28 32 3-22 23 7 32-30-14-28 17 4-33-25-21 32-7 13-28Z" fill="url(#star)" opacity="0.92"/>
    <rect x="174" y="102" width="68" height="8" rx="4" fill="#DAE5F7"/>
    <rect x="170" y="128" width="38" height="8" rx="4" fill="#E4ECFA"/>
    <rect x="234" y="136" width="26" height="7" rx="3.5" fill="#EDF3FC"/>
    <rect x="166" y="210" width="80" height="8" rx="4" fill="#E2EAF8"/>
    <rect x="163" y="233" width="116" height="8" rx="4" fill="#E0E9F8"/>
    <path d="M175 52h71c10 0 18 8 18 18v24c0 8-6 14-14 14h-81c-8 0-14-6-14-14V72c0-11 9-20 20-20Z" fill="url(#clip)"/>
    <circle cx="211" cy="66" r="12" fill="#EAF2FF"/>
    <circle cx="211" cy="66" r="6" fill="#8EAAEA"/>
  </g>
  <path d="M304 93c31 8 51 22 58 41 7 20-2 39-23 57" stroke="#B6CAF4" stroke-width="4" stroke-linecap="round" stroke-dasharray="8 10" opacity="0.65"/>
  <path d="M347 79l46 13-36 30 3-24-13-19Z" fill="#7FA4EF" opacity="0.9"/>
  <path d="M103 113l5 9 9 5-9 5-5 9-5-9-9-5 9-5 5-9Z" fill="#86A7EF" opacity="0.75"/>
  <path d="M333 166l7 12 12 7-12 7-7 12-7-12-12-7 12-7 7-12Z" fill="#5F8DEB" opacity="0.8"/>
  <circle cx="69" cy="155" r="8" fill="#94B0EF" opacity="0.75"/>
  <circle cx="258" cy="143" r="8" fill="#86A7EF" opacity="0.5"/>
</svg>
