<svg xmlns="http://www.w3.org/2000/svg" width="1200" height="900" viewBox="0 0 1200 900" fill="none">
  <rect width="1200" height="900" rx="32" fill="#FCFAFC"/>
  <rect x="430" y="390" width="340" height="120" rx="60" fill="#F7F3FF" stroke="#7E52D5" stroke-width="4"/>
  <text x="600" y="438" text-anchor="middle" font-family="Arial, 'Microsoft YaHei', sans-serif" font-size="30" font-weight="700" fill="#203757">大学计算机课程体系</text>
  <text x="600" y="478" text-anchor="middle" font-family="Arial, 'Microsoft YaHei', sans-serif" font-size="22" fill="#7E52D5">AI 生成思维导图</text>
  <g stroke="#D7CCE9" stroke-width="4" stroke-linecap="round">
    <path d="M430 450H248"/>
    <path d="M770 450H952"/>
    <path d="M600 390V214"/>
    <path d="M600 510V686"/>
  </g>
  <g font-family="Arial, 'Microsoft YaHei', sans-serif">
    <rect x="80" y="358" width="250" height="184" rx="24" fill="#FFFFFF" stroke="#E7E0F3"/>
    <circle cx="116" cy="396" r="10" fill="#7E52D5"/>
    <text x="140" y="405" font-size="26" font-weight="700" fill="#203757">基础课程</text>
    <text x="116" y="454" font-size="22" fill="#536175">程序设计</text>
    <text x="116" y="492" font-size="22" fill="#536175">计算机导论</text>
    <rect x="870" y="358" width="250" height="184" rx="24" fill="#FFFFFF" stroke="#DDEAFD"/>
    <circle cx="906" cy="396" r="10" fill="#3B82F6"/>
    <text x="930" y="405" font-size="26" font-weight="700" fill="#203757">核心能力</text>
    <text x="906" y="454" font-size="22" fill="#536175">数据结构</text>
    <text x="906" y="492" font-size="22" fill="#536175">操作系统</text>
    <rect x="475" y="80" width="250" height="184" rx="24" fill="#FFFFFF" stroke="#D9F0E7"/>
    <circle cx="511" cy="118" r="10" fill="#10B981"/>
    <text x="535" y="127" font-size="26" font-weight="700" fill="#203757">应用方向</text>
    <text x="511" y="176" font-size="22" fill="#536175">Web 开发</text>
    <text x="511" y="214" font-size="22" fill="#536175">人工智能</text>
    <rect x="475" y="636" width="250" height="184" rx="24" fill="#FFFFFF" stroke="#FBE7C4"/>
    <circle cx="511" cy="674" r="10" fill="#F59E0B"/>
    <text x="535" y="683" font-size="26" font-weight="700" fill="#203757">实践项目</text>
    <text x="511" y="732" font-size="22" fill="#536175">课程设计</text>
    <text x="511" y="770" font-size="22" fill="#536175">综合实训</text>
  </g>
</svg>
